# xmcd
#
# Track frame offsets:
#	150
#	14932
#	27483
#	41222
#	56993
#	72818
#	88412
#	102068
#	115242
#	133758
#	148415
#	168798
#
# Disc length: 2440 seconds
# Revision: 0
# Processed by: cddbd v1.5.2PL0 Copyright (c) Steve Scherf et al.
# Submitted via: dBpowerAMP V12.0
#
DISCID=ba09860c
DTITLE=Steve Spurgin - Folk Remedies
DYEAR=2012
DGENRE=Country
TTITLE0=Whiskey Town
TTITLE1=Long Gone
TTITLE2=The Wall CameTumbling Down
TTITLE3=God Bless Those Desert Rats
TTITLE4=Visions of Plenty
TTITLE5=The Only Thing I Learned
TTITLE6=The Sound of a Distant Thunder
TTITLE7=Sunset on the Sierra
TTITLE8=If I Never See Ireland Again
TTITLE9=The Big Payoff
TTITLE10=The Children of the Sea
TTITLE11=Carolina in the Fall
EXTD=
EXTT0=
EXTT1=
EXTT2=
EXTT3=
EXTT4=
EXTT5=
EXTT6=
EXTT7=
EXTT8=
EXTT9=
EXTT10=
EXTT11=
PLAYORDER=
